<svg xmlns="http://www.w3.org/2000/svg" version="1.1" xmlns:xlink="http://www.w3.org/1999/xlink" width="1000" height="1000"><style>
    #light-icon {
      display: inline;
    }
    #dark-icon {
      display: none;
    }

    @media (prefers-color-scheme: dark) {
      #light-icon {
        display: none;
      }
      #dark-icon {
        display: inline;
      }
    }
  </style><g id="light-icon"><svg xmlns="http://www.w3.org/2000/svg" version="1.1" xmlns:xlink="http://www.w3.org/1999/xlink" width="1000" height="1000"><g clip-path="url(#SvgjsClipPath1269)"><rect width="1000" height="1000" fill="#1e293b"></rect><g transform="matrix(1.1494252873563218,0,0,1.1494252873563218,100,128.73563218390808)"><svg xmlns="http://www.w3.org/2000/svg" viewBox="164 165.5 696 646" width="696" height="646"><defs><circle id="a" cx="813" cy="208" r="13"></circle><use id="c" href="#a" transform="scale(.4615)"></use><clipPath id="SvgjsClipPath1269"><rect width="1000" height="1000" x="0" y="0" rx="250" ry="250"></rect></clipPath></defs><g fill="#fafed5"><use x="-205" y="75" href="#c"></use><use x="-169" y="75" href="#c"></use><use x="-133" y="75" href="#c"></use><use x="-97" y="75" href="#c"></use><use x="-61" y="75" href="#c"></use><use x="-25" y="75" href="#c"></use><use x="11" y="75" href="#c"></use><use x="47" y="75" href="#c"></use><use x="83" y="75" href="#c"></use><use x="119" y="75" href="#c"></use><use x="155" y="75" href="#c"></use><use x="191" y="75" href="#c"></use><use x="227" y="75" href="#c"></use><use x="263" y="75" href="#c"></use><use x="299" y="75" href="#c"></use><use x="335" y="75" href="#c"></use><use x="371" y="75" href="#c"></use><use x="407" y="75" href="#c"></use><use x="443" y="75" href="#c"></use><use x="479" y="75" href="#c"></use></g><g fill="#f9fed4"><use x="-205" y="111" href="#c"></use><use x="-607" y="-1" href="#a"></use><use x="-571" y="-1" href="#a"></use><use x="-535" y="-1" href="#a"></use><use x="-499" y="-1" href="#a"></use><use x="-463" y="-1" href="#a"></use><use x="-427" y="-1" href="#a"></use><use x="-391" y="-1" href="#a"></use><use x="-355" y="-1" href="#a"></use><use x="-319" y="-1" href="#a"></use><use x="-283" y="-1" href="#a"></use><use x="-247" y="-1" href="#a"></use><use x="-211" y="-1" href="#a"></use><use x="-175" y="-1" href="#a"></use><use x="-139" y="-1" href="#a"></use><use x="-103" y="-1" href="#a"></use><use x="-67" y="-1" href="#a"></use><use x="-31" y="-1" href="#a"></use><use x="5" y="-1" href="#a"></use><use x="479" y="111" href="#c"></use></g><g fill="#f9fde6"><use x="-205" y="144" href="#c"></use><use x="479" y="144" href="#c"></use></g><g fill="#bdfef7"><use x="-607" y="32" href="#a"></use><use x="-571" y="32" href="#a"></use><use x="-535" y="32" href="#a"></use><use x="-499" y="32" href="#a"></use><use x="-463" y="32" href="#a"></use><use x="-427" y="32" href="#a"></use><use x="-391" y="32" href="#a"></use><use x="-355" y="32" href="#a"></use><use x="-319" y="32" href="#a"></use><use x="-283" y="32" href="#a"></use><use x="-247" y="32" href="#a"></use><use x="-211" y="32" href="#a"></use><use x="-175" y="32" href="#a"></use><use x="-139" y="32" href="#a"></use><use x="-103" y="32" href="#a"></use><use x="-67" y="32" href="#a"></use><use x="-31" y="32" href="#a"></use><use x="5" y="32" href="#a"></use></g><g fill="#c5fef9"><use x="-205" y="177" href="#c"></use><use x="479" y="177" href="#c"></use></g><g fill="#adfef9"><use x="-607" y="65" href="#a"></use><use x="-571" y="65" href="#a"></use><use x="-535" y="65" href="#a"></use><use x="-499" y="65" href="#a"></use><use x="-463" y="65" href="#a"></use><use x="-427" y="65" href="#a"></use><use x="-391" y="65" href="#a"></use><use x="-355" y="65" href="#a"></use><use x="-319" y="65" href="#a"></use><use x="-283" y="65" href="#a"></use><use x="-247" y="65" href="#a"></use><use x="-211" y="65" href="#a"></use><use x="-175" y="65" href="#a"></use><use x="-139" y="65" href="#a"></use><use x="-103" y="65" href="#a"></use><use x="-67" y="65" href="#a"></use><use x="-31" y="65" href="#a"></use><use x="5" y="65" href="#a"></use></g><g fill="#91fefe"><use x="-205" y="210" href="#c"></use><use x="479" y="210" href="#c"></use></g><g fill="#9cfefb"><use x="-607" y="98" href="#a"></use><use x="-571" y="98" href="#a"></use><use x="-535" y="98" href="#a"></use><use x="-499" y="98" href="#a"></use><use x="-463" y="98" href="#a"></use><use x="-427" y="98" href="#a"></use><use x="-391" y="98" href="#a"></use><use x="-355" y="98" href="#a"></use><use x="-319" y="98" href="#a"></use><use x="-283" y="98" href="#a"></use><use x="-247" y="98" href="#a"></use><use x="-211" y="98" href="#a"></use><use x="-175" y="98" href="#a"></use><use x="-139" y="98" href="#a"></use><use x="-103" y="98" href="#a"></use><use x="-67" y="98" href="#a"></use><use x="-31" y="98" href="#a"></use><use x="5" y="98" href="#a"></use></g><g fill="#91fdfc"><use x="-205" y="243" href="#c"></use><use x="479" y="243" href="#c"></use></g><g fill="#98fefb"><use x="-607" y="131" href="#a"></use><use x="-571" y="131" href="#a"></use><use x="-535" y="131" href="#a"></use><use x="-499" y="131" href="#a"></use><use x="-463" y="131" href="#a"></use><use x="-427" y="131" href="#a"></use><use x="-391" y="131" href="#a"></use><use x="-355" y="131" href="#a"></use><use x="-319" y="131" href="#a"></use><use x="-283" y="131" href="#a"></use><use x="-247" y="131" href="#a"></use><use x="-211" y="131" href="#a"></use><use x="-175" y="131" href="#a"></use><use x="-139" y="131" href="#a"></use><use x="-103" y="131" href="#a"></use><use x="-67" y="131" href="#a"></use><use x="-31" y="131" href="#a"></use><use x="5" y="131" href="#a"></use></g><g fill="#8cfdfd"><use x="-205" y="276" href="#c"></use><use x="-169" y="276" href="#c"></use><use x="-133" y="276" href="#c"></use><use x="-97" y="276" href="#c"></use><use x="-61" y="276" href="#c"></use><use x="-25" y="276" href="#c"></use><use x="11" y="276" href="#c"></use><use x="263" y="276" href="#c"></use><use x="299" y="276" href="#c"></use><use x="335" y="276" href="#c"></use><use x="371" y="276" href="#c"></use><use x="407" y="276" href="#c"></use><use x="443" y="276" href="#c"></use><use x="479" y="276" href="#c"></use></g><g fill="#92fefb"><use x="-391" y="164" href="#a"></use><use x="-355" y="164" href="#a"></use><use x="-319" y="164" href="#a"></use><use x="-283" y="164" href="#a"></use><use x="-247" y="164" href="#a"></use><use x="-211" y="164" href="#a"></use><use x="-391" y="164" href="#a"></use><use x="-355" y="164" href="#a"></use><use x="-319" y="164" href="#a"></use><use x="-283" y="164" href="#a"></use><use x="-247" y="164" href="#a"></use><use x="-211" y="164" href="#a"></use></g><g fill="#8afdfd"><use x="11" y="309" href="#c"></use><use x="263" y="309" href="#c"></use></g><g fill="#79fefd"><use x="-391" y="197" href="#a"></use><use x="-355" y="197" href="#a"></use><use x="-319" y="197" href="#a"></use><use x="-283" y="197" href="#a"></use><use x="-247" y="197" href="#a"></use><use x="-211" y="197" href="#a"></use></g><g fill="#50fbfd"><use x="11" y="342" href="#c"></use><use x="263" y="342" href="#c"></use></g><g fill="#77fefc"><use x="-391" y="230" href="#a"></use><use x="-355" y="230" href="#a"></use><use x="-319" y="230" href="#a"></use><use x="-283" y="230" href="#a"></use><use x="-247" y="230" href="#a"></use><use x="-211" y="230" href="#a"></use></g><g fill="#6dfdfc"><use x="11" y="375" href="#c"></use><use x="263" y="375" href="#c"></use></g><g fill="#60fdfe"><use x="-391" y="263" href="#a"></use><use x="-355" y="263" href="#a"></use><use x="-319" y="263" href="#a"></use><use x="-283" y="263" href="#a"></use><use x="-247" y="263" href="#a"></use><use x="-211" y="263" href="#a"></use></g><g fill="#3ffcfd"><use x="11" y="408" href="#c"></use><use x="263" y="408" href="#c"></use></g><g fill="#61fdfc"><use x="-391" y="296" href="#a"></use><use x="-355" y="296" href="#a"></use><use x="-319" y="296" href="#a"></use><use x="-283" y="296" href="#a"></use><use x="-247" y="296" href="#a"></use><use x="-211" y="296" href="#a"></use></g><g fill="#4cfbfd"><use x="11" y="441" href="#c"></use><use x="263" y="441" href="#c"></use></g><g fill="#4bfdfd"><use x="-391" y="329" href="#a"></use><use x="-355" y="329" href="#a"></use><use x="-319" y="329" href="#a"></use><use x="-283" y="329" href="#a"></use><use x="-247" y="329" href="#a"></use><use x="-211" y="329" href="#a"></use></g><g fill="#23fbfc"><use x="11" y="474" href="#c"></use><use x="263" y="474" href="#c"></use></g><g fill="#44fdfd"><use x="-391" y="362" href="#a"></use><use x="-355" y="362" href="#a"></use><use x="-319" y="362" href="#a"></use><use x="-283" y="362" href="#a"></use><use x="-247" y="362" href="#a"></use><use x="-211" y="362" href="#a"></use></g><g fill="#3efbfd"><use x="11" y="507" href="#c"></use><use x="263" y="507" href="#c"></use></g><g fill="#3efdfd"><use x="-391" y="395" href="#a"></use><use x="-355" y="395" href="#a"></use><use x="-319" y="395" href="#a"></use><use x="-283" y="395" href="#a"></use><use x="-247" y="395" href="#a"></use><use x="-211" y="395" href="#a"></use></g><g fill="#1dfafc"><use x="11" y="540" href="#c"></use><use x="263" y="540" href="#c"></use></g><g fill="#34fcfd"><use x="-391" y="428" href="#a"></use><use x="-355" y="428" href="#a"></use><use x="-319" y="428" href="#a"></use><use x="-283" y="428" href="#a"></use><use x="-247" y="428" href="#a"></use><use x="-211" y="428" href="#a"></use></g><g fill="#33fcfc"><use x="11" y="573" href="#c"></use><use x="264" y="573" href="#c"></use></g><g fill="#22f9fd"><use x="-391" y="461" href="#a"></use><use x="-355" y="461" href="#a"></use><use x="-319" y="461" href="#a"></use><use x="-283" y="461" href="#a"></use><use x="-247" y="461" href="#a"></use><use x="-211" y="461" href="#a"></use></g><g fill="#0efafc"><use x="11" y="606" href="#c"></use><use x="263" y="606" href="#c"></use></g><g fill="#1df8fd"><use x="-391" y="494" href="#a"></use><use x="-355" y="494" href="#a"></use><use x="-319" y="494" href="#a"></use><use x="-283" y="494" href="#a"></use><use x="-247" y="494" href="#a"></use><use x="-211" y="494" href="#a"></use></g><g fill="#27fafb"><use x="11" y="639" href="#c"></use><use x="263" y="639" href="#c"></use></g><g fill="#14f1fc"><use x="-391" y="527" href="#a"></use><use x="-355" y="527" href="#a"></use><use x="-319" y="527" href="#a"></use><use x="-283" y="527" href="#a"></use><use x="-247" y="527" href="#a"></use><use x="-211" y="527" href="#a"></use></g><g fill="#15fafd"><use x="11" y="673" href="#c"></use><use x="263" y="673" href="#c"></use></g><g fill="#14f1fc"><use x="-391" y="561" href="#a"></use><use x="-355" y="561" href="#a"></use><use x="-319" y="561" href="#a"></use><use x="-283" y="561" href="#a"></use><use x="-247" y="561" href="#a"></use><use x="-211" y="561" href="#a"></use></g><g fill="#1afbfc"><use x="11" y="709" href="#c"></use><use x="47" y="709" href="#c"></use><use x="83" y="709" href="#c"></use><use x="119" y="709" href="#c"></use><use x="155" y="709" href="#c"></use><use x="191" y="709" href="#c"></use><use x="227" y="709" href="#c"></use><use x="263" y="709" href="#c"></use></g></svg></g></g></svg></g><g id="dark-icon"><svg xmlns="http://www.w3.org/2000/svg" version="1.1" xmlns:xlink="http://www.w3.org/1999/xlink" width="1000" height="1000"><g><g transform="matrix(1.4367816091954022,0,0,1.4367816091954022,5.684341886080802e-14,35.91954022988506)"><svg xmlns="http://www.w3.org/2000/svg" viewBox="164 165.5 696 646" width="696" height="646"><defs><circle id="a" cx="813" cy="208" r="13"></circle><use id="c" href="#a" transform="scale(.4615)"></use></defs><g fill="#fafed5"><use x="-205" y="75" href="#c"></use><use x="-169" y="75" href="#c"></use><use x="-133" y="75" href="#c"></use><use x="-97" y="75" href="#c"></use><use x="-61" y="75" href="#c"></use><use x="-25" y="75" href="#c"></use><use x="11" y="75" href="#c"></use><use x="47" y="75" href="#c"></use><use x="83" y="75" href="#c"></use><use x="119" y="75" href="#c"></use><use x="155" y="75" href="#c"></use><use x="191" y="75" href="#c"></use><use x="227" y="75" href="#c"></use><use x="263" y="75" href="#c"></use><use x="299" y="75" href="#c"></use><use x="335" y="75" href="#c"></use><use x="371" y="75" href="#c"></use><use x="407" y="75" href="#c"></use><use x="443" y="75" href="#c"></use><use x="479" y="75" href="#c"></use></g><g fill="#f9fed4"><use x="-205" y="111" href="#c"></use><use x="-607" y="-1" href="#a"></use><use x="-571" y="-1" href="#a"></use><use x="-535" y="-1" href="#a"></use><use x="-499" y="-1" href="#a"></use><use x="-463" y="-1" href="#a"></use><use x="-427" y="-1" href="#a"></use><use x="-391" y="-1" href="#a"></use><use x="-355" y="-1" href="#a"></use><use x="-319" y="-1" href="#a"></use><use x="-283" y="-1" href="#a"></use><use x="-247" y="-1" href="#a"></use><use x="-211" y="-1" href="#a"></use><use x="-175" y="-1" href="#a"></use><use x="-139" y="-1" href="#a"></use><use x="-103" y="-1" href="#a"></use><use x="-67" y="-1" href="#a"></use><use x="-31" y="-1" href="#a"></use><use x="5" y="-1" href="#a"></use><use x="479" y="111" href="#c"></use></g><g fill="#f9fde6"><use x="-205" y="144" href="#c"></use><use x="479" y="144" href="#c"></use></g><g fill="#bdfef7"><use x="-607" y="32" href="#a"></use><use x="-571" y="32" href="#a"></use><use x="-535" y="32" href="#a"></use><use x="-499" y="32" href="#a"></use><use x="-463" y="32" href="#a"></use><use x="-427" y="32" href="#a"></use><use x="-391" y="32" href="#a"></use><use x="-355" y="32" href="#a"></use><use x="-319" y="32" href="#a"></use><use x="-283" y="32" href="#a"></use><use x="-247" y="32" href="#a"></use><use x="-211" y="32" href="#a"></use><use x="-175" y="32" href="#a"></use><use x="-139" y="32" href="#a"></use><use x="-103" y="32" href="#a"></use><use x="-67" y="32" href="#a"></use><use x="-31" y="32" href="#a"></use><use x="5" y="32" href="#a"></use></g><g fill="#c5fef9"><use x="-205" y="177" href="#c"></use><use x="479" y="177" href="#c"></use></g><g fill="#adfef9"><use x="-607" y="65" href="#a"></use><use x="-571" y="65" href="#a"></use><use x="-535" y="65" href="#a"></use><use x="-499" y="65" href="#a"></use><use x="-463" y="65" href="#a"></use><use x="-427" y="65" href="#a"></use><use x="-391" y="65" href="#a"></use><use x="-355" y="65" href="#a"></use><use x="-319" y="65" href="#a"></use><use x="-283" y="65" href="#a"></use><use x="-247" y="65" href="#a"></use><use x="-211" y="65" href="#a"></use><use x="-175" y="65" href="#a"></use><use x="-139" y="65" href="#a"></use><use x="-103" y="65" href="#a"></use><use x="-67" y="65" href="#a"></use><use x="-31" y="65" href="#a"></use><use x="5" y="65" href="#a"></use></g><g fill="#91fefe"><use x="-205" y="210" href="#c"></use><use x="479" y="210" href="#c"></use></g><g fill="#9cfefb"><use x="-607" y="98" href="#a"></use><use x="-571" y="98" href="#a"></use><use x="-535" y="98" href="#a"></use><use x="-499" y="98" href="#a"></use><use x="-463" y="98" href="#a"></use><use x="-427" y="98" href="#a"></use><use x="-391" y="98" href="#a"></use><use x="-355" y="98" href="#a"></use><use x="-319" y="98" href="#a"></use><use x="-283" y="98" href="#a"></use><use x="-247" y="98" href="#a"></use><use x="-211" y="98" href="#a"></use><use x="-175" y="98" href="#a"></use><use x="-139" y="98" href="#a"></use><use x="-103" y="98" href="#a"></use><use x="-67" y="98" href="#a"></use><use x="-31" y="98" href="#a"></use><use x="5" y="98" href="#a"></use></g><g fill="#91fdfc"><use x="-205" y="243" href="#c"></use><use x="479" y="243" href="#c"></use></g><g fill="#98fefb"><use x="-607" y="131" href="#a"></use><use x="-571" y="131" href="#a"></use><use x="-535" y="131" href="#a"></use><use x="-499" y="131" href="#a"></use><use x="-463" y="131" href="#a"></use><use x="-427" y="131" href="#a"></use><use x="-391" y="131" href="#a"></use><use x="-355" y="131" href="#a"></use><use x="-319" y="131" href="#a"></use><use x="-283" y="131" href="#a"></use><use x="-247" y="131" href="#a"></use><use x="-211" y="131" href="#a"></use><use x="-175" y="131" href="#a"></use><use x="-139" y="131" href="#a"></use><use x="-103" y="131" href="#a"></use><use x="-67" y="131" href="#a"></use><use x="-31" y="131" href="#a"></use><use x="5" y="131" href="#a"></use></g><g fill="#8cfdfd"><use x="-205" y="276" href="#c"></use><use x="-169" y="276" href="#c"></use><use x="-133" y="276" href="#c"></use><use x="-97" y="276" href="#c"></use><use x="-61" y="276" href="#c"></use><use x="-25" y="276" href="#c"></use><use x="11" y="276" href="#c"></use><use x="263" y="276" href="#c"></use><use x="299" y="276" href="#c"></use><use x="335" y="276" href="#c"></use><use x="371" y="276" href="#c"></use><use x="407" y="276" href="#c"></use><use x="443" y="276" href="#c"></use><use x="479" y="276" href="#c"></use></g><g fill="#92fefb"><use x="-391" y="164" href="#a"></use><use x="-355" y="164" href="#a"></use><use x="-319" y="164" href="#a"></use><use x="-283" y="164" href="#a"></use><use x="-247" y="164" href="#a"></use><use x="-211" y="164" href="#a"></use><use x="-391" y="164" href="#a"></use><use x="-355" y="164" href="#a"></use><use x="-319" y="164" href="#a"></use><use x="-283" y="164" href="#a"></use><use x="-247" y="164" href="#a"></use><use x="-211" y="164" href="#a"></use></g><g fill="#8afdfd"><use x="11" y="309" href="#c"></use><use x="263" y="309" href="#c"></use></g><g fill="#79fefd"><use x="-391" y="197" href="#a"></use><use x="-355" y="197" href="#a"></use><use x="-319" y="197" href="#a"></use><use x="-283" y="197" href="#a"></use><use x="-247" y="197" href="#a"></use><use x="-211" y="197" href="#a"></use></g><g fill="#50fbfd"><use x="11" y="342" href="#c"></use><use x="263" y="342" href="#c"></use></g><g fill="#77fefc"><use x="-391" y="230" href="#a"></use><use x="-355" y="230" href="#a"></use><use x="-319" y="230" href="#a"></use><use x="-283" y="230" href="#a"></use><use x="-247" y="230" href="#a"></use><use x="-211" y="230" href="#a"></use></g><g fill="#6dfdfc"><use x="11" y="375" href="#c"></use><use x="263" y="375" href="#c"></use></g><g fill="#60fdfe"><use x="-391" y="263" href="#a"></use><use x="-355" y="263" href="#a"></use><use x="-319" y="263" href="#a"></use><use x="-283" y="263" href="#a"></use><use x="-247" y="263" href="#a"></use><use x="-211" y="263" href="#a"></use></g><g fill="#3ffcfd"><use x="11" y="408" href="#c"></use><use x="263" y="408" href="#c"></use></g><g fill="#61fdfc"><use x="-391" y="296" href="#a"></use><use x="-355" y="296" href="#a"></use><use x="-319" y="296" href="#a"></use><use x="-283" y="296" href="#a"></use><use x="-247" y="296" href="#a"></use><use x="-211" y="296" href="#a"></use></g><g fill="#4cfbfd"><use x="11" y="441" href="#c"></use><use x="263" y="441" href="#c"></use></g><g fill="#4bfdfd"><use x="-391" y="329" href="#a"></use><use x="-355" y="329" href="#a"></use><use x="-319" y="329" href="#a"></use><use x="-283" y="329" href="#a"></use><use x="-247" y="329" href="#a"></use><use x="-211" y="329" href="#a"></use></g><g fill="#23fbfc"><use x="11" y="474" href="#c"></use><use x="263" y="474" href="#c"></use></g><g fill="#44fdfd"><use x="-391" y="362" href="#a"></use><use x="-355" y="362" href="#a"></use><use x="-319" y="362" href="#a"></use><use x="-283" y="362" href="#a"></use><use x="-247" y="362" href="#a"></use><use x="-211" y="362" href="#a"></use></g><g fill="#3efbfd"><use x="11" y="507" href="#c"></use><use x="263" y="507" href="#c"></use></g><g fill="#3efdfd"><use x="-391" y="395" href="#a"></use><use x="-355" y="395" href="#a"></use><use x="-319" y="395" href="#a"></use><use x="-283" y="395" href="#a"></use><use x="-247" y="395" href="#a"></use><use x="-211" y="395" href="#a"></use></g><g fill="#1dfafc"><use x="11" y="540" href="#c"></use><use x="263" y="540" href="#c"></use></g><g fill="#34fcfd"><use x="-391" y="428" href="#a"></use><use x="-355" y="428" href="#a"></use><use x="-319" y="428" href="#a"></use><use x="-283" y="428" href="#a"></use><use x="-247" y="428" href="#a"></use><use x="-211" y="428" href="#a"></use></g><g fill="#33fcfc"><use x="11" y="573" href="#c"></use><use x="264" y="573" href="#c"></use></g><g fill="#22f9fd"><use x="-391" y="461" href="#a"></use><use x="-355" y="461" href="#a"></use><use x="-319" y="461" href="#a"></use><use x="-283" y="461" href="#a"></use><use x="-247" y="461" href="#a"></use><use x="-211" y="461" href="#a"></use></g><g fill="#0efafc"><use x="11" y="606" href="#c"></use><use x="263" y="606" href="#c"></use></g><g fill="#1df8fd"><use x="-391" y="494" href="#a"></use><use x="-355" y="494" href="#a"></use><use x="-319" y="494" href="#a"></use><use x="-283" y="494" href="#a"></use><use x="-247" y="494" href="#a"></use><use x="-211" y="494" href="#a"></use></g><g fill="#27fafb"><use x="11" y="639" href="#c"></use><use x="263" y="639" href="#c"></use></g><g fill="#14f1fc"><use x="-391" y="527" href="#a"></use><use x="-355" y="527" href="#a"></use><use x="-319" y="527" href="#a"></use><use x="-283" y="527" href="#a"></use><use x="-247" y="527" href="#a"></use><use x="-211" y="527" href="#a"></use></g><g fill="#15fafd"><use x="11" y="673" href="#c"></use><use x="263" y="673" href="#c"></use></g><g fill="#14f1fc"><use x="-391" y="561" href="#a"></use><use x="-355" y="561" href="#a"></use><use x="-319" y="561" href="#a"></use><use x="-283" y="561" href="#a"></use><use x="-247" y="561" href="#a"></use><use x="-211" y="561" href="#a"></use></g><g fill="#1afbfc"><use x="11" y="709" href="#c"></use><use x="47" y="709" href="#c"></use><use x="83" y="709" href="#c"></use><use x="119" y="709" href="#c"></use><use x="155" y="709" href="#c"></use><use x="191" y="709" href="#c"></use><use x="227" y="709" href="#c"></use><use x="263" y="709" href="#c"></use></g></svg></g></g></svg></g></svg>